#!OML:ASF X:\für Bonn\!DataBase\2005_08_12_Daniel\c3d\Daniel.ASF
:FULLY-SPECIFIED
:DEGREES
1121
root 15.5772 16.6456 28.8686 -170.045 -66.3973 528.16
lowerback 14.9942 -4.13138 0.133705
upperback 3.22924 -5.70479 -1.12439
thorax -5.07589 -2.8966 -0.160653
lowerneck 2.5167 -5.33885 -9.32127
upperneck 16.749 -9.5986 10.8264
head 5.55126 -5.00608 4.50262
rclavicle -3.97569e-016 5.96354e-015
rhumerus -45.676 -34.3354 -63.3551
rradius 12.7952
rwrist 41.2003
rhand -15.9104 16.3253
rfingers 7.12502
rthumb 10.2866 -13.4031
lclavicle -3.97569e-016 5.96354e-015
lhumerus -38.1709 21.7217 74.35
lradius 31.8949
lwrist -13.5851
lhand -14.7787 -7.93087
lfingers 7.12502
lthumb 11.3782 21.7404
rfemur -36.1291 1.19876 21.159
rtibia 46.2694
rfoot -15.2159 -9.97717
rtoes -3.38328
lfemur 13.8244 0.471344 -20.6672
ltibia 40.7655
lfoot -7.04635 -21.9093
ltoes -24.0345
1122
root 15.4278 16.6578 28.7608 -170.544 -66.1742 528.563
lowerback 14.938 -4.10007 0.217306
upperback 3.26017 -5.64897 -1.0791
thorax -5.0153 -2.87123 -0.176235
lowerneck 2.59808 -5.34886 -9.28229
upperneck 16.7867 -9.67012 11.0049
head 5.562 -5.03788 4.55188
rclavicle -9.64603e-014 3.02153e-014
rhumerus -45.0547 -33.9783 -64.1093
rradius 12.937
rwrist 40.8516
rhand -15.6646 16.2185
rfingers 7.12502
rthumb 10.5237 -13.498
lclavicle -9.64603e-014 3.02153e-014
lhumerus -38.2878 22.2577 74.4768
lradius 31.7179
lwrist -13.9698
lhand -14.6772 -8.08985
lfingers 7.12502
lthumb 11.4761 21.576
rfemur -35.4559 1.26912 21.5411
rtibia 46.5056
rfoot -15.6821 -9.80535
rtoes -3.03313
lfemur 12.3479 0.725709 -20.1669
ltibia 43.6463
lfoot -4.91792 -22.1277
ltoes -26.8475
1123
root 15.281 16.6697 28.6539 -171.059 -65.9174 528.925
lowerback 14.9079 -4.04421 0.263691
upperback 3.32674 -5.56938 -1.04101
thorax -4.92807 -2.83495 -0.182837
lowerneck 2.68301 -5.38173 -9.30973
upperneck 16.7971 -9.77247 11.2163
head 5.57187 -5.08626 4.62104
rclavicle -5.00937e-014 1.88845e-014
rhumerus -44.3454 -33.4327 -65.0742
rradius 13.2086
rwrist 40.3044
rhand -15.3966 16.0281
rfingers 7.12502
rthumb 10.7822 -13.6751
lclavicle -5.00937e-014 1.88845e-014
lhumerus -38.2944 22.6641 74.6828
lradius 31.5114
lwrist -14.3223
lhand -14.6119 -8.2617
lfingers 7.12502
lthumb 11.5391 21.4007
rfemur -34.7029 1.39587 21.8969
rtibia 46.7142
rfoot -16.1743 -9.63969
rtoes -2.51327
lfemur 10.8596 0.944177 -19.7065
ltibia 46.5583
lfoot -2.89274 -22.1565
ltoes -29.5697
1124
root 15.137 16.6819 28.5455 -171.563 -65.6498 529.254
lowerback 14.9153 -3.98937 0.259109
upperback 3.38382 -5.49996 -1.01592
thorax -4.86792 -2.80286 -0.169419
lowerneck 2.72929 -5.38285 -9.27912
upperneck 16.8648 -9.84034 11.4291
head 5.59956 -5.11445 4.682
rclavicle 5.70015e-014 -1.78906e-014
rhumerus -43.0597 -31.2663 -67.438
rradius 13.7703
rwrist 37.7316
rhand -15.07 15.6237
rfingers 7.12502
rthumb 11.0972 -14.0629
lclavicle 5.70015e-014 -1.78906e-014
lhumerus -38.2889 22.9689 74.8929
lradius 31.2813
lwrist -14.5891
lhand -14.4737 -8.29236
lfingers 7.12502
lthumb 11.6723 21.3625
rfemur -33.9041 1.56897 22.2412
rtibia 46.8742
rfoot -16.6927 -9.54074
rtoes -2.339
lfemur 9.3438 1.03482 -19.32
ltibia 49.4511
lfoot -1.02871 -21.9564
ltoes -31.8961
1125
root 14.9959 16.6914 28.4378 -171.979 -65.3623 529.473
lowerback 14.9249 -3.91529 0.160204
upperback 3.45188 -5.41857 -0.958031
thorax -4.78558 -2.76426 -0.0720223
lowerneck 2.80862 -5.39726 -9.35246
upperneck 16.8842 -9.91416 11.6234
head 5.61185 -5.15228 4.75512
rclavicle -5.42682e-014 -3.77691e-015
rhumerus -42.0528 -29.6786 -69.12
rradius 14.2553
rwrist 36.0334
rhand -14.7686 15.3803
rfingers 7.12502
rthumb 11.3879 -14.2904
lclavicle -5.42682e-014 -3.77691e-015
lhumerus -38.2703 23.2039 75.2284
lradius 31.102
lwrist -14.8112
lhand -14.3396 -8.28143
lfingers 7.12502
lthumb 11.8017 21.366
rfemur -33.0817 1.793 22.5313
rtibia 46.9885
rfoot -17.1819 -9.47977
rtoes -2.2124
lfemur 7.79076 1.08811 -19.0186
ltibia 52.2969
lfoot 0.509668 -21.6172
ltoes -33.5435
1126
root 14.8538 16.7053 28.3292 -172.422 -65.0752 529.707
lowerback 14.9651 -3.843 0.0931273
upperback 3.49286 -5.33553 -0.93145
thorax -4.7547 -2.72447 -0.0216282
lowerneck 2.91962 -5.40812 -9.38284
upperneck 16.9468 -9.99926 11.8228
head 5.63167 -5.19612 4.82331
rclavicle 9.16894e-014 -2.26615e-014
rhumerus -41.0951 -27.5368 -71.1372
rradius 14.9004
rwrist 33.7263
rhand -14.5627 15.1063
rfingers 7.12502
rthumb 11.5865 -14.5534
lclavicle 9.16894e-014 -2.26615e-014
lhumerus -38.2881 23.3323 75.4987
lradius 30.8854
lwrist -15.056
lhand -14.156 -8.26209
lfingers 7.12502
lthumb 11.9787 21.3752
rfemur -32.1668 1.98373 22.8383
rtibia 47.0368
rfoot -17.7101 -9.36697
rtoes -2.09973
lfemur 6.27111 1.04392 -18.7569
ltibia 55.069
lfoot 1.55405 -21.0014
ltoes -34.2837
1127
root 14.7144 16.7201 28.2202 -172.915 -64.7854 529.988
lowerback 15.0012 -3.7652 0.0358589
upperback 3.56444 -5.24478 -0.893835
thorax -4.6893 -2.68208 0.0317406
lowerneck 2.94669 -5.44809 -9.38479
upperneck 16.9894 -10.0985 11.9579
head 5.65757 -5.24258 4.86192
rclavicle -6.06293e-014 2.56432e-014
rhumerus -40.1711 -25.4738 -73.0228
rradius 15.5659
rwrist 31.556
rhand -14.4528 14.9122
rfingers 7.12502
rthumb 11.6924 -14.7415
lclavicle -6.06293e-014 2.56432e-014
lhumerus -38.236 23.531 75.8047
lradius 30.6771
lwrist -15.4281
lhand -13.9521 -8.06657
lfingers 7.12502
lthumb 12.1753 21.5591
rfemur -31.2147 2.19108 23.1654
rtibia 47.0299
rfoot -18.24 -9.2684
rtoes -2.17716
lfemur 4.74577 0.946284 -18.4814
ltibia 57.7777
lfoot 1.87175 -20.1449
ltoes -34.9893
1128
root 14.5756 16.7341 28.1114 -173.362 -64.4923 530.157
lowerback 15.1272 -3.68532 -0.120092
upperback 3.59174 -5.16467 -0.837569
thorax -4.70935 -2.64249 0.169883
lowerneck 3.08296 -5.4589 -9.42518
upperneck 17.0513 -10.1737 12.0862
head 5.66957 -5.2866 4.91039
rclavicle 6.41081e-015 -2.38542e-014
rhumerus -39.4964 -23.4391 -74.6573
rradius 16.2721
rwrist 29.5621
rhand -14.4917 14.7553
rfingers 7.12502
rthumb 11.655 -14.9005
lclavicle 6.41081e-015 -2.38542e-014
lhumerus -38.2971 23.6824 76.0864
lradius 30.4679
lwrist -15.7715
lhand -13.7787 -7.93652
lfingers 7.12502
lthumb 12.3425 21.6792
rfemur -30.1759 2.4237 23.4313
rtibia 46.9862
rfoot -18.8046 -9.20549
rtoes -1.93818
lfemur 3.28632 0.837169 -18.2749
ltibia 60.4067
lfoot 1.57813 -19.0823
ltoes -35.5822
1129
root 14.4383 16.7481 28.0026 -173.761 -64.1669 530.294
lowerback 15.238 -3.5942 -0.259874
upperback 3.63465 -5.07011 -0.812117
thorax -4.70947 -2.59673 0.262309
lowerneck 3.09819 -5.50084 -9.37527
upperneck 17.1442 -10.2681 12.1244
head 5.70613 -5.33226 4.90873
rclavicle -9.83984e-015 9.34288e-015
rhumerus -38.8602 -21.1873 -76.3968
rradius 17.0992
rwrist 27.362
rhand -14.651 14.6623
rfingers 7.12502
rthumb 11.5014 -15.0021
lclavicle -9.83984e-015 9.34288e-015
lhumerus -38.3153 23.8547 76.3527
lradius 30.2766
lwrist -16.1984
lhand -13.5777 -7.79121
lfingers 7.12502
lthumb 12.5362 21.8127
rfemur -29.1535 2.67045 23.6801
rtibia 46.9191
rfoot -19.3101 -9.0918
rtoes -1.70336
lfemur 1.83135 0.710879 -18.0888
ltibia 62.9108
lfoot 1.17979 -17.9153
ltoes -35.3786
1130
root 14.3016 16.7595 27.8959 -174.114 -63.8541 530.39
lowerback 15.3067 -3.48867 -0.405956
upperback 3.69307 -4.95817 -0.790692
thorax -4.67082 -2.54314 0.347066
lowerneck 3.10316 -5.5628 -9.30255
upperneck 17.2337 -10.3884 12.1585
head 5.74523 -5.38845 4.89972
rclavicle 1.21607e-013 -1.19271e-014
rhumerus -38.3164 -19.3888 -77.814
rradius 17.8525
rwrist 25.6466
rhand -14.9964 14.6731
rfingers 7.12502
rthumb 11.1682 -15.0097
lclavicle 1.21607e-013 -1.19271e-014
lhumerus -38.3085 24.1301 76.5611
lradius 30.0709
lwrist -16.8061
lhand -13.2863 -7.63522
lfingers 7.12502
lthumb 12.8172 21.9513
rfemur -28.1419 2.85757 23.9078
rtibia 46.8469
rfoot -19.8271 -8.93748
rtoes -1.84977
lfemur 0.391894 0.627831 -17.8946
ltibia 65.2846
lfoot 0.443395 -16.6961
ltoes -35.4236
1131
root 14.1657 16.7702 27.788 -174.409 -63.5287 530.406
lowerback 15.3586 -3.40718 -0.600142
upperback 3.77121 -4.8871 -0.776052
thorax -4.59932 -2.51041 0.457314
lowerneck 3.0974 -5.61589 -9.31791
upperneck 17.2896 -10.4846 12.1895
head 5.77724 -5.43655 4.90553
rclavicle 6.47044e-014 -2.04748e-014
rhumerus -37.7899 -17.5309 -79.1819
rradius 18.6095
rwrist 24.0245
rhand -15.4938 14.7707
rfingers 7.12502
rthumb 10.6885 -14.9374
lclavicle 6.47044e-014 -2.04748e-014
lhumerus -38.3252 24.4043 76.763
lradius 29.8864
lwrist -17.3013
lhand -13.1214 -7.58694
lfingers 7.12502
lthumb 12.9762 21.9895
rfemur -27.1021 3.02904 24.0932
rtibia 46.7556
rfoot -20.374 -8.72439
rtoes -1.54769
lfemur -0.996635 0.617556 -17.7607
ltibia 67.4657
lfoot -0.545287 -15.4367
ltoes -34.5166
